<mxfile host="Electron" modified="2024-05-03T14:19:35.661Z" agent="Mozilla/5.0 (Windows NT 10.0; Win64; x64) AppleWebKit/537.36 (KHTML, like Gecko) draw.io/24.2.5 Chrome/120.0.6099.109 Electron/28.1.0 Safari/537.36" etag="YJGcJLfHF697WR66HoAk" version="24.2.5" type="device">
  <diagram id="C5RBs43oDa-KdzZeNtuy" name="Page-1">
    <mxGraphModel dx="1327" dy="304" grid="1" gridSize="10" guides="1" tooltips="1" connect="1" arrows="1" fold="1" page="1" pageScale="1" pageWidth="827" pageHeight="1169" math="0" shadow="0">
      <root>
        <mxCell id="WIyWlLk6GJQsqaUBKTNV-0" />
        <mxCell id="WIyWlLk6GJQsqaUBKTNV-1" parent="WIyWlLk6GJQsqaUBKTNV-0" />
        <mxCell id="t7jjxHOYT7Rr9pakZnZM-1" style="edgeStyle=orthogonalEdgeStyle;rounded=0;orthogonalLoop=1;jettySize=auto;html=1;entryX=1;entryY=0.5;entryDx=0;entryDy=0;endArrow=none;endFill=0;exitX=0;exitY=0.5;exitDx=0;exitDy=0;" parent="WIyWlLk6GJQsqaUBKTNV-1" source="SARtFGewvBgr_fSRfrZv-0" target="_29-zOQu-uZAErQ8ES41-5" edge="1">
          <mxGeometry relative="1" as="geometry">
            <mxPoint x="380" y="336.85711669921875" as="sourcePoint" />
          </mxGeometry>
        </mxCell>
        <mxCell id="t7jjxHOYT7Rr9pakZnZM-5" value="Manages" style="edgeLabel;html=1;align=center;verticalAlign=middle;resizable=0;points=[];" parent="t7jjxHOYT7Rr9pakZnZM-1" vertex="1" connectable="0">
          <mxGeometry x="0.0234" y="2" relative="1" as="geometry">
            <mxPoint as="offset" />
          </mxGeometry>
        </mxCell>
        <mxCell id="t7jjxHOYT7Rr9pakZnZM-6" value="1...*" style="edgeLabel;html=1;align=center;verticalAlign=middle;resizable=0;points=[];" parent="t7jjxHOYT7Rr9pakZnZM-1" vertex="1" connectable="0">
          <mxGeometry x="0.9529" y="-1" relative="1" as="geometry">
            <mxPoint x="12" as="offset" />
          </mxGeometry>
        </mxCell>
        <mxCell id="t7jjxHOYT7Rr9pakZnZM-7" value="0...*" style="edgeLabel;html=1;align=center;verticalAlign=middle;resizable=0;points=[];" parent="t7jjxHOYT7Rr9pakZnZM-1" vertex="1" connectable="0">
          <mxGeometry x="-0.9144" relative="1" as="geometry">
            <mxPoint as="offset" />
          </mxGeometry>
        </mxCell>
        <mxCell id="_29-zOQu-uZAErQ8ES41-0" value="User" style="swimlane;fontStyle=0;childLayout=stackLayout;horizontal=1;startSize=30;horizontalStack=0;resizeParent=1;resizeParentMax=0;resizeLast=0;collapsible=1;marginBottom=0;whiteSpace=wrap;html=1;" parent="WIyWlLk6GJQsqaUBKTNV-1" vertex="1">
          <mxGeometry x="660" y="270" width="140" height="150" as="geometry">
            <mxRectangle x="660" y="300" width="70" height="30" as="alternateBounds" />
          </mxGeometry>
        </mxCell>
        <mxCell id="_29-zOQu-uZAErQ8ES41-1" value="+username" style="text;strokeColor=none;fillColor=none;align=left;verticalAlign=middle;spacingLeft=4;spacingRight=4;overflow=hidden;points=[[0,0.5],[1,0.5]];portConstraint=eastwest;rotatable=0;whiteSpace=wrap;html=1;" parent="_29-zOQu-uZAErQ8ES41-0" vertex="1">
          <mxGeometry y="30" width="140" height="30" as="geometry" />
        </mxCell>
        <mxCell id="_29-zOQu-uZAErQ8ES41-2" value="+name" style="text;strokeColor=none;fillColor=none;align=left;verticalAlign=middle;spacingLeft=4;spacingRight=4;overflow=hidden;points=[[0,0.5],[1,0.5]];portConstraint=eastwest;rotatable=0;whiteSpace=wrap;html=1;" parent="_29-zOQu-uZAErQ8ES41-0" vertex="1">
          <mxGeometry y="60" width="140" height="30" as="geometry" />
        </mxCell>
        <mxCell id="_29-zOQu-uZAErQ8ES41-3" value="+surname" style="text;strokeColor=none;fillColor=none;align=left;verticalAlign=middle;spacingLeft=4;spacingRight=4;overflow=hidden;points=[[0,0.5],[1,0.5]];portConstraint=eastwest;rotatable=0;whiteSpace=wrap;html=1;" parent="_29-zOQu-uZAErQ8ES41-0" vertex="1">
          <mxGeometry y="90" width="140" height="30" as="geometry" />
        </mxCell>
        <mxCell id="_29-zOQu-uZAErQ8ES41-4" value="+role" style="text;strokeColor=none;fillColor=none;align=left;verticalAlign=middle;spacingLeft=4;spacingRight=4;overflow=hidden;points=[[0,0.5],[1,0.5]];portConstraint=eastwest;rotatable=0;whiteSpace=wrap;html=1;" parent="_29-zOQu-uZAErQ8ES41-0" vertex="1">
          <mxGeometry y="120" width="140" height="30" as="geometry" />
        </mxCell>
        <mxCell id="_29-zOQu-uZAErQ8ES41-22" style="edgeStyle=orthogonalEdgeStyle;rounded=0;orthogonalLoop=1;jettySize=auto;html=1;exitX=0.5;exitY=1;exitDx=0;exitDy=0;entryX=0.5;entryY=0;entryDx=0;entryDy=0;endArrow=none;endFill=0;" parent="WIyWlLk6GJQsqaUBKTNV-1" source="_29-zOQu-uZAErQ8ES41-5" target="_29-zOQu-uZAErQ8ES41-13" edge="1">
          <mxGeometry relative="1" as="geometry" />
        </mxCell>
        <mxCell id="_29-zOQu-uZAErQ8ES41-23" value="0...1" style="edgeLabel;html=1;align=center;verticalAlign=middle;resizable=0;points=[];" parent="_29-zOQu-uZAErQ8ES41-22" vertex="1" connectable="0">
          <mxGeometry x="0.8346" y="1" relative="1" as="geometry">
            <mxPoint x="-1" y="-4" as="offset" />
          </mxGeometry>
        </mxCell>
        <mxCell id="_29-zOQu-uZAErQ8ES41-25" value="0...*" style="edgeLabel;html=1;align=center;verticalAlign=middle;resizable=0;points=[];" parent="_29-zOQu-uZAErQ8ES41-22" vertex="1" connectable="0">
          <mxGeometry x="-0.8637" relative="1" as="geometry">
            <mxPoint y="5" as="offset" />
          </mxGeometry>
        </mxCell>
        <mxCell id="ROy06PXfQjZ0QGiv5AQE-1" value="Contains" style="edgeLabel;html=1;align=center;verticalAlign=middle;resizable=0;points=[];" vertex="1" connectable="0" parent="_29-zOQu-uZAErQ8ES41-22">
          <mxGeometry x="0.0275" y="-3" relative="1" as="geometry">
            <mxPoint x="3" as="offset" />
          </mxGeometry>
        </mxCell>
        <mxCell id="_29-zOQu-uZAErQ8ES41-5" value="Product" style="swimlane;fontStyle=0;childLayout=stackLayout;horizontal=1;startSize=30;horizontalStack=0;resizeParent=1;resizeParentMax=0;resizeLast=0;collapsible=1;marginBottom=0;whiteSpace=wrap;html=1;" parent="WIyWlLk6GJQsqaUBKTNV-1" vertex="1">
          <mxGeometry x="30" y="90" width="140" height="240" as="geometry">
            <mxRectangle x="30" y="90" width="80" height="30" as="alternateBounds" />
          </mxGeometry>
        </mxCell>
        <mxCell id="_29-zOQu-uZAErQ8ES41-6" value="+code" style="text;strokeColor=none;fillColor=none;align=left;verticalAlign=middle;spacingLeft=4;spacingRight=4;overflow=hidden;points=[[0,0.5],[1,0.5]];portConstraint=eastwest;rotatable=0;whiteSpace=wrap;html=1;" parent="_29-zOQu-uZAErQ8ES41-5" vertex="1">
          <mxGeometry y="30" width="140" height="30" as="geometry" />
        </mxCell>
        <mxCell id="_29-zOQu-uZAErQ8ES41-7" value="+sellingPrice" style="text;strokeColor=none;fillColor=none;align=left;verticalAlign=middle;spacingLeft=4;spacingRight=4;overflow=hidden;points=[[0,0.5],[1,0.5]];portConstraint=eastwest;rotatable=0;whiteSpace=wrap;html=1;" parent="_29-zOQu-uZAErQ8ES41-5" vertex="1">
          <mxGeometry y="60" width="140" height="30" as="geometry" />
        </mxCell>
        <mxCell id="_29-zOQu-uZAErQ8ES41-8" value="+model" style="text;strokeColor=none;fillColor=none;align=left;verticalAlign=middle;spacingLeft=4;spacingRight=4;overflow=hidden;points=[[0,0.5],[1,0.5]];portConstraint=eastwest;rotatable=0;whiteSpace=wrap;html=1;" parent="_29-zOQu-uZAErQ8ES41-5" vertex="1">
          <mxGeometry y="90" width="140" height="30" as="geometry" />
        </mxCell>
        <mxCell id="_29-zOQu-uZAErQ8ES41-9" value="+category" style="text;strokeColor=none;fillColor=none;align=left;verticalAlign=middle;spacingLeft=4;spacingRight=4;overflow=hidden;points=[[0,0.5],[1,0.5]];portConstraint=eastwest;rotatable=0;whiteSpace=wrap;html=1;" parent="_29-zOQu-uZAErQ8ES41-5" vertex="1">
          <mxGeometry y="120" width="140" height="30" as="geometry" />
        </mxCell>
        <mxCell id="_29-zOQu-uZAErQ8ES41-10" value="+arrivalDate" style="text;strokeColor=none;fillColor=none;align=left;verticalAlign=middle;spacingLeft=4;spacingRight=4;overflow=hidden;points=[[0,0.5],[1,0.5]];portConstraint=eastwest;rotatable=0;whiteSpace=wrap;html=1;" parent="_29-zOQu-uZAErQ8ES41-5" vertex="1">
          <mxGeometry y="150" width="140" height="30" as="geometry" />
        </mxCell>
        <mxCell id="_29-zOQu-uZAErQ8ES41-11" value="+sellingDate" style="text;strokeColor=none;fillColor=none;align=left;verticalAlign=middle;spacingLeft=4;spacingRight=4;overflow=hidden;points=[[0,0.5],[1,0.5]];portConstraint=eastwest;rotatable=0;whiteSpace=wrap;html=1;" parent="_29-zOQu-uZAErQ8ES41-5" vertex="1">
          <mxGeometry y="180" width="140" height="30" as="geometry" />
        </mxCell>
        <mxCell id="_29-zOQu-uZAErQ8ES41-12" value="+details" style="text;strokeColor=none;fillColor=none;align=left;verticalAlign=middle;spacingLeft=4;spacingRight=4;overflow=hidden;points=[[0,0.5],[1,0.5]];portConstraint=eastwest;rotatable=0;whiteSpace=wrap;html=1;" parent="_29-zOQu-uZAErQ8ES41-5" vertex="1">
          <mxGeometry y="210" width="140" height="30" as="geometry" />
        </mxCell>
        <mxCell id="_29-zOQu-uZAErQ8ES41-26" style="edgeStyle=orthogonalEdgeStyle;rounded=0;orthogonalLoop=1;jettySize=auto;html=1;exitX=1;exitY=0.5;exitDx=0;exitDy=0;endArrow=none;endFill=0;" parent="WIyWlLk6GJQsqaUBKTNV-1" source="_29-zOQu-uZAErQ8ES41-13" edge="1">
          <mxGeometry relative="1" as="geometry">
            <mxPoint x="440" y="460" as="targetPoint" />
            <Array as="points">
              <mxPoint x="440" y="505" />
            </Array>
          </mxGeometry>
        </mxCell>
        <mxCell id="54HP9XvDNRvb0u6FqdEc-0" value="0...*" style="edgeLabel;html=1;align=center;verticalAlign=middle;resizable=0;points=[];" parent="_29-zOQu-uZAErQ8ES41-26" vertex="1" connectable="0">
          <mxGeometry x="-0.8105" y="3" relative="1" as="geometry">
            <mxPoint x="4" as="offset" />
          </mxGeometry>
        </mxCell>
        <mxCell id="54HP9XvDNRvb0u6FqdEc-1" value="1" style="edgeLabel;html=1;align=center;verticalAlign=middle;resizable=0;points=[];" parent="_29-zOQu-uZAErQ8ES41-26" vertex="1" connectable="0">
          <mxGeometry x="0.8632" y="1" relative="1" as="geometry">
            <mxPoint x="10" as="offset" />
          </mxGeometry>
        </mxCell>
        <mxCell id="ROy06PXfQjZ0QGiv5AQE-22" value="Has" style="edgeLabel;html=1;align=center;verticalAlign=middle;resizable=0;points=[];" vertex="1" connectable="0" parent="_29-zOQu-uZAErQ8ES41-26">
          <mxGeometry x="-0.0558" y="1" relative="1" as="geometry">
            <mxPoint as="offset" />
          </mxGeometry>
        </mxCell>
        <mxCell id="_29-zOQu-uZAErQ8ES41-13" value="Cart" style="swimlane;fontStyle=0;childLayout=stackLayout;horizontal=1;startSize=30;horizontalStack=0;resizeParent=1;resizeParentMax=0;resizeLast=0;collapsible=1;marginBottom=0;whiteSpace=wrap;html=1;" parent="WIyWlLk6GJQsqaUBKTNV-1" vertex="1">
          <mxGeometry x="30" y="400" width="140" height="210" as="geometry">
            <mxRectangle x="70" y="395" width="60" height="30" as="alternateBounds" />
          </mxGeometry>
        </mxCell>
        <mxCell id="_29-zOQu-uZAErQ8ES41-14" value="+id" style="text;strokeColor=none;fillColor=none;align=left;verticalAlign=middle;spacingLeft=4;spacingRight=4;overflow=hidden;points=[[0,0.5],[1,0.5]];portConstraint=eastwest;rotatable=0;whiteSpace=wrap;html=1;" parent="_29-zOQu-uZAErQ8ES41-13" vertex="1">
          <mxGeometry y="30" width="140" height="30" as="geometry" />
        </mxCell>
        <mxCell id="_29-zOQu-uZAErQ8ES41-15" value="+customer" style="text;strokeColor=none;fillColor=none;align=left;verticalAlign=middle;spacingLeft=4;spacingRight=4;overflow=hidden;points=[[0,0.5],[1,0.5]];portConstraint=eastwest;rotatable=0;whiteSpace=wrap;html=1;" parent="_29-zOQu-uZAErQ8ES41-13" vertex="1">
          <mxGeometry y="60" width="140" height="30" as="geometry" />
        </mxCell>
        <mxCell id="_29-zOQu-uZAErQ8ES41-16" value="+paid" style="text;strokeColor=none;fillColor=none;align=left;verticalAlign=middle;spacingLeft=4;spacingRight=4;overflow=hidden;points=[[0,0.5],[1,0.5]];portConstraint=eastwest;rotatable=0;whiteSpace=wrap;html=1;" parent="_29-zOQu-uZAErQ8ES41-13" vertex="1">
          <mxGeometry y="90" width="140" height="30" as="geometry" />
        </mxCell>
        <mxCell id="_29-zOQu-uZAErQ8ES41-17" value="+paymentDate" style="text;strokeColor=none;fillColor=none;align=left;verticalAlign=middle;spacingLeft=4;spacingRight=4;overflow=hidden;points=[[0,0.5],[1,0.5]];portConstraint=eastwest;rotatable=0;whiteSpace=wrap;html=1;" parent="_29-zOQu-uZAErQ8ES41-13" vertex="1">
          <mxGeometry y="120" width="140" height="30" as="geometry" />
        </mxCell>
        <mxCell id="_29-zOQu-uZAErQ8ES41-18" value="+total" style="text;strokeColor=none;fillColor=none;align=left;verticalAlign=middle;spacingLeft=4;spacingRight=4;overflow=hidden;points=[[0,0.5],[1,0.5]];portConstraint=eastwest;rotatable=0;whiteSpace=wrap;html=1;" parent="_29-zOQu-uZAErQ8ES41-13" vertex="1">
          <mxGeometry y="150" width="140" height="30" as="geometry" />
        </mxCell>
        <mxCell id="_29-zOQu-uZAErQ8ES41-19" value="+products" style="text;strokeColor=none;fillColor=none;align=left;verticalAlign=middle;spacingLeft=4;spacingRight=4;overflow=hidden;points=[[0,0.5],[1,0.5]];portConstraint=eastwest;rotatable=0;whiteSpace=wrap;html=1;" parent="_29-zOQu-uZAErQ8ES41-13" vertex="1">
          <mxGeometry y="180" width="140" height="30" as="geometry" />
        </mxCell>
        <mxCell id="SARtFGewvBgr_fSRfrZv-9" style="edgeStyle=orthogonalEdgeStyle;rounded=0;orthogonalLoop=1;jettySize=auto;html=1;exitX=1;exitY=0.5;exitDx=0;exitDy=0;entryX=0;entryY=0.25;entryDx=0;entryDy=0;endArrow=block;endFill=0;" parent="WIyWlLk6GJQsqaUBKTNV-1" source="SARtFGewvBgr_fSRfrZv-0" target="_29-zOQu-uZAErQ8ES41-0" edge="1">
          <mxGeometry relative="1" as="geometry" />
        </mxCell>
        <mxCell id="SARtFGewvBgr_fSRfrZv-0" value="Manager" style="swimlane;fontStyle=0;childLayout=stackLayout;horizontal=1;startSize=30;horizontalStack=0;resizeParent=1;resizeParentMax=0;resizeLast=0;collapsible=1;marginBottom=0;whiteSpace=wrap;html=1;" parent="WIyWlLk6GJQsqaUBKTNV-1" vertex="1">
          <mxGeometry x="390" y="310" width="140" height="60" as="geometry">
            <mxRectangle x="400" y="330" width="90" height="30" as="alternateBounds" />
          </mxGeometry>
        </mxCell>
        <mxCell id="SARtFGewvBgr_fSRfrZv-8" style="edgeStyle=orthogonalEdgeStyle;rounded=0;orthogonalLoop=1;jettySize=auto;html=1;exitX=1;exitY=0.5;exitDx=0;exitDy=0;entryX=0;entryY=0.75;entryDx=0;entryDy=0;endArrow=block;endFill=0;" parent="WIyWlLk6GJQsqaUBKTNV-1" source="SARtFGewvBgr_fSRfrZv-4" target="_29-zOQu-uZAErQ8ES41-0" edge="1">
          <mxGeometry relative="1" as="geometry" />
        </mxCell>
        <mxCell id="SARtFGewvBgr_fSRfrZv-4" value="Customer" style="swimlane;fontStyle=0;childLayout=stackLayout;horizontal=1;startSize=30;horizontalStack=0;resizeParent=1;resizeParentMax=0;resizeLast=0;collapsible=1;marginBottom=0;whiteSpace=wrap;html=1;" parent="WIyWlLk6GJQsqaUBKTNV-1" vertex="1">
          <mxGeometry x="390" y="400" width="140" height="60" as="geometry">
            <mxRectangle x="410" y="400" width="90" height="30" as="alternateBounds" />
          </mxGeometry>
        </mxCell>
        <mxCell id="ROy06PXfQjZ0QGiv5AQE-2" value="" style="endArrow=none;html=1;rounded=0;exitX=1;exitY=0.5;exitDx=0;exitDy=0;entryX=0;entryY=0.169;entryDx=0;entryDy=0;entryPerimeter=0;" edge="1" parent="WIyWlLk6GJQsqaUBKTNV-1" source="_29-zOQu-uZAErQ8ES41-12" target="SARtFGewvBgr_fSRfrZv-4">
          <mxGeometry width="50" height="50" relative="1" as="geometry">
            <mxPoint x="310" y="430" as="sourcePoint" />
            <mxPoint x="360" y="380" as="targetPoint" />
            <Array as="points">
              <mxPoint x="240" y="315" />
              <mxPoint x="240" y="410" />
            </Array>
          </mxGeometry>
        </mxCell>
        <mxCell id="ROy06PXfQjZ0QGiv5AQE-3" value="Views" style="edgeLabel;html=1;align=center;verticalAlign=middle;resizable=0;points=[];" vertex="1" connectable="0" parent="ROy06PXfQjZ0QGiv5AQE-2">
          <mxGeometry x="0.161" y="-1" relative="1" as="geometry">
            <mxPoint as="offset" />
          </mxGeometry>
        </mxCell>
        <mxCell id="ROy06PXfQjZ0QGiv5AQE-4" value="0...*" style="edgeLabel;html=1;align=center;verticalAlign=middle;resizable=0;points=[];" vertex="1" connectable="0" parent="ROy06PXfQjZ0QGiv5AQE-2">
          <mxGeometry x="-0.9578" relative="1" as="geometry">
            <mxPoint x="3" as="offset" />
          </mxGeometry>
        </mxCell>
        <mxCell id="ROy06PXfQjZ0QGiv5AQE-5" value="0...*" style="edgeLabel;html=1;align=center;verticalAlign=middle;resizable=0;points=[];" vertex="1" connectable="0" parent="ROy06PXfQjZ0QGiv5AQE-2">
          <mxGeometry x="0.9487" relative="1" as="geometry">
            <mxPoint x="-12" as="offset" />
          </mxGeometry>
        </mxCell>
        <mxCell id="ROy06PXfQjZ0QGiv5AQE-6" value="Model" style="swimlane;fontStyle=0;childLayout=stackLayout;horizontal=1;startSize=26;horizontalStack=0;resizeParent=1;resizeParentMax=0;resizeLast=0;collapsible=1;marginBottom=0;align=center;fontSize=14;" vertex="1" parent="WIyWlLk6GJQsqaUBKTNV-1">
          <mxGeometry x="-270" y="90" width="140" height="86" as="geometry" />
        </mxCell>
        <mxCell id="ROy06PXfQjZ0QGiv5AQE-7" value="+quantity" style="text;strokeColor=none;fillColor=none;spacingLeft=4;spacingRight=4;overflow=hidden;rotatable=0;points=[[0,0.5],[1,0.5]];portConstraint=eastwest;fontSize=12;whiteSpace=wrap;html=1;" vertex="1" parent="ROy06PXfQjZ0QGiv5AQE-6">
          <mxGeometry y="26" width="140" height="30" as="geometry" />
        </mxCell>
        <mxCell id="ROy06PXfQjZ0QGiv5AQE-8" value="+category" style="text;strokeColor=none;fillColor=none;spacingLeft=4;spacingRight=4;overflow=hidden;rotatable=0;points=[[0,0.5],[1,0.5]];portConstraint=eastwest;fontSize=12;whiteSpace=wrap;html=1;" vertex="1" parent="ROy06PXfQjZ0QGiv5AQE-6">
          <mxGeometry y="56" width="140" height="30" as="geometry" />
        </mxCell>
        <mxCell id="ROy06PXfQjZ0QGiv5AQE-9" value="" style="endArrow=none;html=1;rounded=0;exitX=1.001;exitY=0.794;exitDx=0;exitDy=0;exitPerimeter=0;entryX=0;entryY=0.665;entryDx=0;entryDy=0;entryPerimeter=0;" edge="1" parent="WIyWlLk6GJQsqaUBKTNV-1" source="ROy06PXfQjZ0QGiv5AQE-7" target="_29-zOQu-uZAErQ8ES41-6">
          <mxGeometry width="50" height="50" relative="1" as="geometry">
            <mxPoint x="-110" y="140" as="sourcePoint" />
            <mxPoint x="20" y="140" as="targetPoint" />
          </mxGeometry>
        </mxCell>
        <mxCell id="ROy06PXfQjZ0QGiv5AQE-10" value="BelongsTo" style="edgeLabel;html=1;align=center;verticalAlign=middle;resizable=0;points=[];" vertex="1" connectable="0" parent="ROy06PXfQjZ0QGiv5AQE-9">
          <mxGeometry x="-0.007" y="-2" relative="1" as="geometry">
            <mxPoint x="-5" y="-2" as="offset" />
          </mxGeometry>
        </mxCell>
        <mxCell id="ROy06PXfQjZ0QGiv5AQE-11" value="1" style="edgeLabel;html=1;align=center;verticalAlign=middle;resizable=0;points=[];" vertex="1" connectable="0" parent="ROy06PXfQjZ0QGiv5AQE-9">
          <mxGeometry x="-0.7813" y="1" relative="1" as="geometry">
            <mxPoint x="-8" as="offset" />
          </mxGeometry>
        </mxCell>
        <mxCell id="ROy06PXfQjZ0QGiv5AQE-12" value="1...*" style="edgeLabel;html=1;align=center;verticalAlign=middle;resizable=0;points=[];" vertex="1" connectable="0" parent="ROy06PXfQjZ0QGiv5AQE-9">
          <mxGeometry x="0.8115" relative="1" as="geometry">
            <mxPoint as="offset" />
          </mxGeometry>
        </mxCell>
        <mxCell id="ROy06PXfQjZ0QGiv5AQE-13" value="" style="endArrow=none;html=1;rounded=0;entryX=0.75;entryY=0;entryDx=0;entryDy=0;exitX=0.75;exitY=0;exitDx=0;exitDy=0;" edge="1" parent="WIyWlLk6GJQsqaUBKTNV-1" source="SARtFGewvBgr_fSRfrZv-0" target="ROy06PXfQjZ0QGiv5AQE-6">
          <mxGeometry width="50" height="50" relative="1" as="geometry">
            <mxPoint x="360" y="41" as="sourcePoint" />
            <mxPoint x="160" y="-190" as="targetPoint" />
            <Array as="points">
              <mxPoint x="495" y="40" />
              <mxPoint x="-165" y="40" />
            </Array>
          </mxGeometry>
        </mxCell>
        <mxCell id="ROy06PXfQjZ0QGiv5AQE-14" value="Restocks" style="edgeLabel;html=1;align=center;verticalAlign=middle;resizable=0;points=[];" vertex="1" connectable="0" parent="ROy06PXfQjZ0QGiv5AQE-13">
          <mxGeometry x="0.0881" y="1" relative="1" as="geometry">
            <mxPoint x="-42" y="-1" as="offset" />
          </mxGeometry>
        </mxCell>
        <mxCell id="ROy06PXfQjZ0QGiv5AQE-15" value="0...*" style="edgeLabel;html=1;align=center;verticalAlign=middle;resizable=0;points=[];" vertex="1" connectable="0" parent="ROy06PXfQjZ0QGiv5AQE-13">
          <mxGeometry x="0.9677" y="2" relative="1" as="geometry">
            <mxPoint as="offset" />
          </mxGeometry>
        </mxCell>
        <mxCell id="ROy06PXfQjZ0QGiv5AQE-16" value="0...*" style="edgeLabel;html=1;align=center;verticalAlign=middle;resizable=0;points=[];" vertex="1" connectable="0" parent="ROy06PXfQjZ0QGiv5AQE-13">
          <mxGeometry x="-0.9663" relative="1" as="geometry">
            <mxPoint as="offset" />
          </mxGeometry>
        </mxCell>
        <mxCell id="ROy06PXfQjZ0QGiv5AQE-17" value="Cart History" style="swimlane;fontStyle=0;childLayout=stackLayout;horizontal=1;startSize=26;horizontalStack=0;resizeParent=1;resizeParentMax=0;resizeLast=0;collapsible=1;marginBottom=0;align=center;fontSize=14;" vertex="1" parent="WIyWlLk6GJQsqaUBKTNV-1">
          <mxGeometry x="-280" y="460" width="160" height="56" as="geometry" />
        </mxCell>
        <mxCell id="ROy06PXfQjZ0QGiv5AQE-18" value="" style="endArrow=none;html=1;rounded=0;exitX=1;exitY=0.354;exitDx=0;exitDy=0;exitPerimeter=0;entryX=-0.001;entryY=0.656;entryDx=0;entryDy=0;entryPerimeter=0;" edge="1" parent="WIyWlLk6GJQsqaUBKTNV-1" source="ROy06PXfQjZ0QGiv5AQE-17" target="_29-zOQu-uZAErQ8ES41-15">
          <mxGeometry width="50" height="50" relative="1" as="geometry">
            <mxPoint x="-109.99999999999987" y="479.99199999999996" as="sourcePoint" />
            <mxPoint x="-10" y="510" as="targetPoint" />
          </mxGeometry>
        </mxCell>
        <mxCell id="ROy06PXfQjZ0QGiv5AQE-19" value="Lists" style="edgeLabel;html=1;align=center;verticalAlign=middle;resizable=0;points=[];" vertex="1" connectable="0" parent="ROy06PXfQjZ0QGiv5AQE-18">
          <mxGeometry x="-0.0002" relative="1" as="geometry">
            <mxPoint as="offset" />
          </mxGeometry>
        </mxCell>
        <mxCell id="ROy06PXfQjZ0QGiv5AQE-20" value="0...1" style="edgeLabel;html=1;align=center;verticalAlign=middle;resizable=0;points=[];" vertex="1" connectable="0" parent="ROy06PXfQjZ0QGiv5AQE-18">
          <mxGeometry x="-0.8994" relative="1" as="geometry">
            <mxPoint x="12" as="offset" />
          </mxGeometry>
        </mxCell>
        <mxCell id="ROy06PXfQjZ0QGiv5AQE-21" value="0...*" style="edgeLabel;html=1;align=center;verticalAlign=middle;resizable=0;points=[];" vertex="1" connectable="0" parent="ROy06PXfQjZ0QGiv5AQE-18">
          <mxGeometry x="0.8517" y="1" relative="1" as="geometry">
            <mxPoint x="-9" as="offset" />
          </mxGeometry>
        </mxCell>
      </root>
    </mxGraphModel>
  </diagram>
</mxfile>
